TITLE ""
FILE "Disc4Track64.mp3" MP3
  TRACK 01 AUDIO
    TITLE "Disc4Track64_01"
    INDEX 01 00:00:00
  TRACK 02 AUDIO
    TITLE "Disc4Track64_02"
    INDEX 01 00:01:10
  TRACK 03 AUDIO
    TITLE "Disc4Track64_03"
    INDEX 01 00:02:13
  TRACK 04 AUDIO
    TITLE "Disc4Track64_04"
    INDEX 01 00:03:32
  TRACK 05 AUDIO
    TITLE "Disc4Track64_05"
    INDEX 01 00:06:46
  TRACK 06 AUDIO
    TITLE "Disc4Track64_06"
    INDEX 01 00:07:04
  TRACK 07 AUDIO
    TITLE "Disc4Track64_07"
    INDEX 01 00:08:33
  TRACK 08 AUDIO
    TITLE "Disc4Track64_08"
    INDEX 01 00:10:11
  TRACK 09 AUDIO
    TITLE "Disc4Track64_09"
    INDEX 01 00:11:36
  TRACK 10 AUDIO
    TITLE "Disc4Track64_10"
    INDEX 01 00:16:03
  TRACK 11 AUDIO
    TITLE "Disc4Track64_11"
    INDEX 01 00:16:31
  TRACK 12 AUDIO
    TITLE "Disc4Track64_12"
    INDEX 01 00:17:46
  TRACK 13 AUDIO
    TITLE "Disc4Track64_13"
    INDEX 01 00:18:59
  TRACK 14 AUDIO
    TITLE "Disc4Track64_14"
    INDEX 01 00:19:72
  TRACK 15 AUDIO
    TITLE "Disc4Track64_15"
    INDEX 01 00:23:05
  TRACK 16 AUDIO
    TITLE "Disc4Track64_16"
    INDEX 01 00:23:37
  TRACK 17 AUDIO
    TITLE "Disc4Track64_17"
    INDEX 01 00:24:68
  TRACK 18 AUDIO
    TITLE "Disc4Track64_18"
    INDEX 01 00:25:69
  TRACK 19 AUDIO
    TITLE "Disc4Track64_19"
    INDEX 01 00:27:25
  TRACK 20 AUDIO
    TITLE "Disc4Track64_20"
    INDEX 01 00:27:62
  TRACK 21 AUDIO
    TITLE "Disc4Track64_21"
    INDEX 01 00:29:08
  TRACK 22 AUDIO
    TITLE "Disc4Track64_22"
    INDEX 01 00:30:19
  TRACK 23 AUDIO
    TITLE "Disc4Track64_23"
    INDEX 01 00:31:42
  TRACK 24 AUDIO
    TITLE "Disc4Track64_24"
    INDEX 01 00:32:08
  TRACK 25 AUDIO
    TITLE "Disc4Track64_25"
    INDEX 01 00:33:31
  TRACK 26 AUDIO
    TITLE "Disc4Track64_26"
    INDEX 01 00:34:35
  TRACK 27 AUDIO
    TITLE "Disc4Track64_27"
    INDEX 01 00:35:60
  TRACK 28 AUDIO
    TITLE "Disc4Track64_28"
    INDEX 01 00:42:13
  TRACK 29 AUDIO
    TITLE "Disc4Track64_29"
    INDEX 01 00:42:42
  TRACK 30 AUDIO
    TITLE "Disc4Track64_30"
    INDEX 01 00:44:02
  TRACK 31 AUDIO
    TITLE "Disc4Track64_31"
    INDEX 01 00:45:15
  TRACK 32 AUDIO
    TITLE "Disc4Track64_32"
    INDEX 01 00:46:46
  TRACK 33 AUDIO
    TITLE "Disc4Track64_33"
    INDEX 01 00:50:49
  TRACK 34 AUDIO
    TITLE "Disc4Track64_34"
    INDEX 01 00:51:06
  TRACK 35 AUDIO
    TITLE "Disc4Track64_35"
    INDEX 01 00:52:21
  TRACK 36 AUDIO
    TITLE "Disc4Track64_36"
    INDEX 01 00:53:28
  TRACK 37 AUDIO
    TITLE "Disc4Track64_37"
    INDEX 01 00:54:41
  TRACK 38 AUDIO
    TITLE "Disc4Track64_38"
    INDEX 01 00:57:30
  TRACK 39 AUDIO
    TITLE "Disc4Track64_39"
    INDEX 01 00:57:61
  TRACK 40 AUDIO
    TITLE "Disc4Track64_40"
    INDEX 01 00:59:23
  TRACK 41 AUDIO
    TITLE "Disc4Track64_41"
    INDEX 01 01:01:16
  TRACK 42 AUDIO
    TITLE "Disc4Track64_42"
    INDEX 01 01:02:51
  TRACK 43 AUDIO
    TITLE "Disc4Track64_43"
    INDEX 01 01:09:31
  TRACK 44 AUDIO
    TITLE "Disc4Track64_44"
    INDEX 01 01:09:62
  TRACK 45 AUDIO
    TITLE "Disc4Track64_45"
    INDEX 01 01:11:28
  TRACK 46 AUDIO
    TITLE "Disc4Track64_46"
    INDEX 01 01:13:70
  TRACK 47 AUDIO
    TITLE "Disc4Track64_47"
    INDEX 01 01:15:39
